<svg xmlns="http://www.w3.org/2000/svg" viewBox="0 0 32 32" id="caretdoubleup">
  <path d="M17.06,13.94c-.59-.59-1.54-.59-2.12,0L2.94,25.94c-.59.59-.59,1.54,0,2.12.29.29.68.44,1.06.44s.77-.15,1.06-.44l10.94-10.94,10.94,10.94c.29.29.68.44,1.06.44s.77-.15,1.06-.44c.59-.59.59-1.54,0-2.12l-12-12Z" fill="#5a3d2a" class="color000000 svgShape"></path>
  <path d="M17.06,1.94c-.59-.59-1.54-.59-2.12,0L2.94,13.94c-.59.59-.59,1.54,0,2.12.29.29.68.44,1.06.44s.77-.15,1.06-.44l10.94-10.94,10.94,10.94c.29.29.68.44,1.06.44s.77-.15,1.06-.44c.59-.59.59-1.54,0-2.12L17.06,1.94Z" fill="#5a3d2a" class="color000000 svgShape"></path>
</svg>
