<svg xmlns="http://www.w3.org/2000/svg" viewBox="0 0 32 32" id="caretdoubledown">
  <path d="M26.94,3.94l-10.94,10.94L5.06,3.94c-.59-.59-1.54-.59-2.12,0s-.59,1.54,0,2.12l12,12c.29.29.68.44,1.06.44s.77-.15,1.06-.44l12-12c.59-.59.59-1.54,0-2.12s-1.54-.59-2.12,0Z" fill="#5a3d2a" class="color000000 svgShape"></path>
  <path d="M26.94,15.94l-10.94,10.94L5.06,15.94c-.59-.59-1.54-.59-2.12,0s-.59,1.54,0,2.12l12,12c.29.29.68.44,1.06.44s.77-.15,1.06-.44l12-12c.59-.59.59-1.54,0-2.12s-1.54-.59-2.12,0Z" fill="#5a3d2a" class="color000000 svgShape"></path>
</svg>
