<svg xmlns="http://www.w3.org/2000/svg" width="24" height="24" fill="none" viewBox="0 0 24 24" id="Edit">
  <path fill="#dcffc4" fill-rule="evenodd" d="M6 1L3.99997 1.00002C2.34313 1.00004 1 2.34318 1 4.00002V20C1 21.6569 2.34315 23.0001 4 23.0001H20C21.6569 23.0001 23 21.6569 23 20V19H7C6.44772 19 6 18.5523 6 18V1Z" clip-rule="evenodd" class="colorc4e6ff svgShape"></path>
  <path fill="#5a3d2a" fill-rule="evenodd" d="M1 4C1 2.34315 2.34315 1 4 1H13C13.5523 1 14 1.44772 14 2C14 2.55228 13.5523 3 13 3H4C3.44772 3 3 3.44772 3 4V20C3 20.5523 3.44772 21 4 21H20C20.5523 21 21 20.5523 21 20V12C21 11.4477 21.4477 11 22 11C22.5523 11 23 11.4477 23 12V20C23 21.6569 21.6569 23 20 23H4C2.34315 23 1 21.6569 1 20V4Z" clip-rule="evenodd" class="color024493 svgShape"></path>
  <path fill="#558b2f" fill-rule="evenodd" d="M19.5313 3.29289C19.1408 2.90237 18.5076 2.90237 18.1171 3.29289L9 12.4141V15H11.5857L20.7027 5.87884C21.0933 5.48831 21.0934 4.85499 20.7029 4.46447L19.5313 3.29289ZM16.7029 1.87868C17.8745 0.707108 19.774 0.707106 20.9455 1.87868L22.1171 3.05025C23.2886 4.22177 23.2887 6.12115 22.1173 7.29273L12.7073 16.7069C12.5197 16.8946 12.2653 17 12 17H8C7.44772 17 7 16.5523 7 16V12C7 11.7349 7.1053 11.4806 7.29274 11.293L16.7029 1.87868Z" clip-rule="evenodd" class="color1e93ff svgShape"></path>
</svg>
